<svg width="30" height="34" viewBox="0 0 30 34" fill="none" xmlns="http://www.w3.org/2000/svg">
<g clip-path="url(#clip0_421_14292)">
<path fill-rule="evenodd" clip-rule="evenodd" d="M8.78743 29.9437L4.27133 17.0953L0 21.2992L8.78743 29.9437Z" fill="#E72525"/>
<path fill-rule="evenodd" clip-rule="evenodd" d="M13.2305 8.28535L21.5731 0.0783691C22.1713 3.06308 26.4213 5.81467 27.8761 7.79807C28.4492 8.58151 28.4589 9.44715 27.8315 9.85416C26.5204 9.46054 25.3608 9.33248 24.4459 9.621C23.7525 9.84653 23.1212 10.1102 22.8881 10.6051C22.6336 11.144 22.822 12.3019 23.77 12.0841C24.0749 12.0134 24.2264 11.3904 24.172 11.0656C25.5239 10.2363 28.3015 10.5191 28.5152 14.3637C28.5308 15.2828 28.0607 16.0682 26.7729 16.6261C24.6071 17.3828 22.8045 16.9872 21.1633 16.0854L13.2343 8.28535H13.2305Z" fill="#86EBD9"/>
<path fill-rule="evenodd" clip-rule="evenodd" d="M21.6113 0.0798089L13.2773 8.27832H13.2812L19.7106 14.6031C19.7214 14.6036 19.7322 14.604 19.7431 14.6043C16.8499 11.7582 19.7765 3.68602 21.6342 0.13939C21.6298 0.119061 21.6255 0.0987205 21.6214 0.0783691L21.6113 0.0798089Z" fill="#71D0BB"/>
<path fill-rule="evenodd" clip-rule="evenodd" d="M13.0781 8.4353L20.9351 24.5263L26.0669 29.5747C24.9015 28.4282 24.9015 26.5518 26.0669 25.4053C27.2323 24.2588 29.1398 24.2588 30.3053 25.4053L30.4218 25.52L30.4335 25.5085L13.0781 8.4353Z" fill="#B5CE00"/>
<path fill-rule="evenodd" clip-rule="evenodd" d="M20.9371 24.5263L13.08 8.4353L8.83008 12.6162L20.9371 24.5263Z" fill="#6FBA2C"/>
<path fill-rule="evenodd" clip-rule="evenodd" d="M26.0512 29.8198L9.69432 22.0905L4.5625 17.0421C5.72794 18.1886 7.63536 18.1886 8.80083 17.0421C9.96625 15.8956 9.96625 14.0192 8.80083 12.8727L8.68427 12.758L8.69591 12.7466L26.0512 29.8198Z" fill="#9A1C56"/>
<path fill-rule="evenodd" clip-rule="evenodd" d="M9.69531 22.0912L26.0523 29.8205L21.8023 34.0013L9.69531 22.0912Z" fill="#E5016F"/>
<path fill-rule="evenodd" clip-rule="evenodd" d="M4.26953 17.0953L8.78558 29.9437L13.057 25.7399L4.26953 17.0953Z" fill="#F29100"/>
</g>
<defs>
<clipPath id="clip0_421_14292">
<rect width="30" height="34" fill="white"/>
</clipPath>
</defs>
</svg>
